<svg width="130" height="72" viewBox="0 0 130 72" fill="none" xmlns="http://www.w3.org/2000/svg">
<path d="M1.44812 26V0.799986H10.7001C12.7161 0.799986 14.3721 1.14799 15.6681 1.84399C16.9881 2.51599 17.9721 3.43999 18.6201 4.61599C19.2681 5.76799 19.5921 7.05199 19.5921 8.46799C19.5921 10.004 19.1841 11.408 18.3681 12.68C17.5761 13.952 16.3281 14.876 14.6241 15.452L19.8441 26H14.5521L9.87212 16.064H6.05612V26H1.44812ZM6.05612 12.68H10.4121C11.9481 12.68 13.0761 12.308 13.7961 11.564C14.5161 10.82 14.8761 9.83599 14.8761 8.61199C14.8761 7.41199 14.5161 6.45199 13.7961 5.73199C13.1001 5.01199 11.9601 4.65199 10.3761 4.65199H6.05612V12.68Z" fill="#141414"/>
<path d="M31.248 26.432C29.52 26.432 27.96 26.036 26.568 25.244C25.2 24.452 24.108 23.36 23.292 21.968C22.5 20.552 22.104 18.92 22.104 17.072C22.104 15.224 22.512 13.604 23.328 12.212C24.144 10.796 25.236 9.69199 26.604 8.89999C27.996 8.10799 29.556 7.71199 31.284 7.71199C32.988 7.71199 34.524 8.10799 35.892 8.89999C37.284 9.69199 38.376 10.796 39.168 12.212C39.984 13.604 40.392 15.224 40.392 17.072C40.392 18.92 39.984 20.552 39.168 21.968C38.376 23.36 37.284 24.452 35.892 25.244C34.5 26.036 32.952 26.432 31.248 26.432ZM31.248 22.436C32.448 22.436 33.492 21.992 34.38 21.104C35.268 20.192 35.712 18.848 35.712 17.072C35.712 15.296 35.268 13.964 34.38 13.076C33.492 12.164 32.46 11.708 31.284 11.708C30.06 11.708 29.004 12.164 28.116 13.076C27.252 13.964 26.82 15.296 26.82 17.072C26.82 18.848 27.252 20.192 28.116 21.104C29.004 21.992 30.048 22.436 31.248 22.436Z" fill="#141414"/>
<path d="M52.72 26.432C51.04 26.432 49.54 26.024 48.22 25.208C46.9 24.392 45.856 23.276 45.088 21.86C44.32 20.444 43.936 18.836 43.936 17.036C43.936 15.236 44.32 13.64 45.088 12.248C45.856 10.832 46.9 9.72799 48.22 8.93599C49.54 8.11999 51.04 7.71199 52.72 7.71199C54.064 7.71199 55.24 7.96399 56.248 8.46799C57.256 8.97199 58.072 9.67999 58.696 10.592V0.0799866H63.304V26H59.2L58.696 23.444C58.12 24.236 57.352 24.932 56.392 25.532C55.456 26.132 54.232 26.432 52.72 26.432ZM53.692 22.4C55.18 22.4 56.392 21.908 57.328 20.924C58.288 19.916 58.768 18.632 58.768 17.072C58.768 15.512 58.288 14.24 57.328 13.256C56.392 12.248 55.18 11.744 53.692 11.744C52.228 11.744 51.016 12.236 50.056 13.22C49.096 14.204 48.616 15.476 48.616 17.036C48.616 18.596 49.096 19.88 50.056 20.888C51.016 21.896 52.228 22.4 53.692 22.4Z" fill="#141414"/>
<path d="M76.5644 26.432C74.8364 26.432 73.2764 26.036 71.8844 25.244C70.5164 24.452 69.4244 23.36 68.6084 21.968C67.8164 20.552 67.4204 18.92 67.4204 17.072C67.4204 15.224 67.8284 13.604 68.6444 12.212C69.4604 10.796 70.5524 9.69199 71.9204 8.89999C73.3124 8.10799 74.8724 7.71199 76.6004 7.71199C78.3044 7.71199 79.8404 8.10799 81.2084 8.89999C82.6004 9.69199 83.6924 10.796 84.4844 12.212C85.3004 13.604 85.7084 15.224 85.7084 17.072C85.7084 18.92 85.3004 20.552 84.4844 21.968C83.6924 23.36 82.6004 24.452 81.2084 25.244C79.8164 26.036 78.2684 26.432 76.5644 26.432ZM76.5644 22.436C77.7644 22.436 78.8084 21.992 79.6964 21.104C80.5844 20.192 81.0284 18.848 81.0284 17.072C81.0284 15.296 80.5844 13.964 79.6964 13.076C78.8084 12.164 77.7764 11.708 76.6004 11.708C75.3764 11.708 74.3204 12.164 73.4324 13.076C72.5684 13.964 72.1364 15.296 72.1364 17.072C72.1364 18.848 72.5684 20.192 73.4324 21.104C74.3204 21.992 75.3644 22.436 76.5644 22.436Z" fill="#141414"/>
<path d="M89.8284 26V0.0799866H94.4364V26H89.8284Z" fill="#141414"/>
<path d="M99.9728 26V11.996H97.5248V8.14399H99.9728V6.05599C99.9728 3.89599 100.513 2.35999 101.593 1.44799C102.697 0.535986 104.185 0.0799866 106.057 0.0799866H108.037V4.00399H106.777C105.985 4.00399 105.421 4.15999 105.085 4.47199C104.749 4.78399 104.581 5.31199 104.581 6.05599V8.14399H108.433V11.996H104.581V26H99.9728Z" fill="#141414"/>
<path d="M119.947 26.432C118.219 26.432 116.659 26.036 115.267 25.244C113.899 24.452 112.807 23.36 111.991 21.968C111.199 20.552 110.803 18.92 110.803 17.072C110.803 15.224 111.211 13.604 112.027 12.212C112.843 10.796 113.935 9.69199 115.303 8.89999C116.695 8.10799 118.255 7.71199 119.983 7.71199C121.687 7.71199 123.223 8.10799 124.591 8.89999C125.983 9.69199 127.075 10.796 127.867 12.212C128.683 13.604 129.091 15.224 129.091 17.072C129.091 18.92 128.683 20.552 127.867 21.968C127.075 23.36 125.983 24.452 124.591 25.244C123.199 26.036 121.651 26.432 119.947 26.432ZM119.947 22.436C121.147 22.436 122.191 21.992 123.079 21.104C123.967 20.192 124.411 18.848 124.411 17.072C124.411 15.296 123.967 13.964 123.079 13.076C122.191 12.164 121.159 11.708 119.983 11.708C118.759 11.708 117.703 12.164 116.815 13.076C115.951 13.964 115.519 15.296 115.519 17.072C115.519 18.848 115.951 20.192 116.815 21.104C117.703 21.992 118.747 22.436 119.947 22.436Z" fill="#141414"/>
<path d="M12.8601 71.432C10.3161 71.432 8.13212 70.892 6.30812 69.812C4.48412 68.708 3.08012 67.184 2.09612 65.24C1.11212 63.272 0.620117 61.004 0.620117 58.436C0.620117 55.868 1.11212 53.6 2.09612 51.632C3.08012 49.664 4.48412 48.128 6.30812 47.024C8.13212 45.92 10.3161 45.368 12.8601 45.368C15.8841 45.368 18.3561 46.124 20.2761 47.636C22.2201 49.124 23.4321 51.224 23.9121 53.936H18.8361C18.5241 52.568 17.8521 51.5 16.8201 50.732C15.8121 49.94 14.4681 49.544 12.7881 49.544C10.4601 49.544 8.63612 50.336 7.31612 51.92C5.99612 53.504 5.33612 55.676 5.33612 58.436C5.33612 61.196 5.99612 63.368 7.31612 64.952C8.63612 66.512 10.4601 67.292 12.7881 67.292C14.4681 67.292 15.8121 66.932 16.8201 66.212C17.8521 65.468 18.5241 64.448 18.8361 63.152H23.9121C23.4321 65.744 22.2201 67.772 20.2761 69.236C18.3561 70.7 15.8841 71.432 12.8601 71.432Z" fill="#141414"/>
<path d="M36.4511 71.432C34.7231 71.432 33.1631 71.036 31.7711 70.244C30.4031 69.452 29.3111 68.36 28.4951 66.968C27.7031 65.552 27.3071 63.92 27.3071 62.072C27.3071 60.224 27.7151 58.604 28.5311 57.212C29.3471 55.796 30.4391 54.692 31.8071 53.9C33.1991 53.108 34.7591 52.712 36.4871 52.712C38.1911 52.712 39.7271 53.108 41.0951 53.9C42.4871 54.692 43.5791 55.796 44.3711 57.212C45.1871 58.604 45.5951 60.224 45.5951 62.072C45.5951 63.92 45.1871 65.552 44.3711 66.968C43.5791 68.36 42.4871 69.452 41.0951 70.244C39.7031 71.036 38.1551 71.432 36.4511 71.432ZM36.4511 67.436C37.6511 67.436 38.6951 66.992 39.5831 66.104C40.4711 65.192 40.9151 63.848 40.9151 62.072C40.9151 60.296 40.4711 58.964 39.5831 58.076C38.6951 57.164 37.6631 56.708 36.4871 56.708C35.2631 56.708 34.2071 57.164 33.3191 58.076C32.4551 58.964 32.0231 60.296 32.0231 62.072C32.0231 63.848 32.4551 65.192 33.3191 66.104C34.2071 66.992 35.2511 67.436 36.4511 67.436Z" fill="#141414"/>
<path d="M49.7151 71V53.144H53.8191L54.2511 56.492C54.8991 55.34 55.7751 54.428 56.8791 53.756C58.0071 53.06 59.3271 52.712 60.8391 52.712V57.572H59.5431C58.5351 57.572 57.6351 57.728 56.8431 58.04C56.0511 58.352 55.4271 58.892 54.9711 59.66C54.5391 60.428 54.3231 61.496 54.3231 62.864V71H49.7151Z" fill="#141414"/>
<path d="M71.9446 71C70.0726 71 68.5726 70.544 67.4446 69.632C66.3166 68.72 65.7526 67.1 65.7526 64.772V56.996H62.6926V53.144H65.7526L66.2926 48.356H70.3606V53.144H75.1846V56.996H70.3606V64.808C70.3606 65.672 70.5406 66.272 70.9006 66.608C71.2846 66.92 71.9326 67.076 72.8446 67.076H75.0766V71H71.9446Z" fill="#141414"/>
<path d="M87.3599 71.432C85.5599 71.432 83.9639 71.048 82.5719 70.28C81.1799 69.512 80.0879 68.432 79.2959 67.04C78.5039 65.648 78.1079 64.04 78.1079 62.216C78.1079 60.368 78.4919 58.724 79.2599 57.284C80.0519 55.844 81.1319 54.728 82.4999 53.936C83.8919 53.12 85.5239 52.712 87.3959 52.712C89.1479 52.712 90.6959 53.096 92.0399 53.864C93.3839 54.632 94.4279 55.688 95.1719 57.032C95.9399 58.352 96.3239 59.828 96.3239 61.46C96.3239 61.724 96.3119 62 96.2879 62.288C96.2879 62.576 96.2759 62.876 96.2519 63.188H82.6799C82.7759 64.58 83.2559 65.672 84.1199 66.464C85.0079 67.256 86.0759 67.652 87.3239 67.652C88.2599 67.652 89.0399 67.448 89.6639 67.04C90.3119 66.608 90.7919 66.056 91.1039 65.384H95.7839C95.4479 66.512 94.8839 67.544 94.0919 68.48C93.3239 69.392 92.3639 70.112 91.2119 70.64C90.0839 71.168 88.7999 71.432 87.3599 71.432ZM87.3959 56.456C86.2679 56.456 85.2719 56.78 84.4079 57.428C83.5439 58.052 82.9919 59.012 82.7519 60.308H91.6439C91.5719 59.132 91.1399 58.196 90.3479 57.5C89.5559 56.804 88.5719 56.456 87.3959 56.456Z" fill="#141414"/>
<path d="M99.0475 71V67.292L108.155 56.96H99.1555V53.144H113.411V56.852L104.159 67.184H113.591V71H99.0475Z" fill="#141414"/>
</svg>
